<?xml version="1.0" standalone="no"?><!-- Generator: Gravit.io --><svg xmlns="http://www.w3.org/2000/svg" xmlns:xlink="http://www.w3.org/1999/xlink" style="isolation:isolate" viewBox="0 0 269.291 269.291" width="269.291" height="269.291"><defs><clipPath id="_clipPath_atBqv1sgU9goPuneqRWi8IajyFltlq2y"><rect width="269.291" height="269.291"/></clipPath></defs><g clip-path="url(#_clipPath_atBqv1sgU9goPuneqRWi8IajyFltlq2y)"><g id="Group"><path d=" M 21.26 118.378 C 21.26 55.799 72.066 4.992 134.646 4.992 C 197.225 4.992 248.031 55.799 248.031 118.378 C 248.031 180.957 197.225 231.764 134.646 231.764 C 72.066 231.764 21.26 180.957 21.26 118.378 Z " fill="rgb(0,0,0)"/><g style="isolation: isolate;"><mask id="_mask_X4Y2Qr50MUE9BQrycT1wYpVBSeXGFfHQ" x="-200%" y="-200%" width="400%" height="400%"><rect x="0" y="0" width="100%" height="100%" style="fill:white;"/><path d=" M 21.26 118.378 C 21.26 55.799 72.066 4.992 134.646 4.992 C 197.225 4.992 248.031 55.799 248.031 118.378 C 248.031 180.957 197.225 231.764 134.646 231.764 C 72.066 231.764 21.26 180.957 21.26 118.378 Z " fill="black" stroke="none"/></mask><path d=" M 21.26 118.378 C 21.26 55.799 72.066 4.992 134.646 4.992 C 197.225 4.992 248.031 55.799 248.031 118.378 C 248.031 180.957 197.225 231.764 134.646 231.764 C 72.066 231.764 21.26 180.957 21.26 118.378 Z " fill="none" mask="url(#_mask_X4Y2Qr50MUE9BQrycT1wYpVBSeXGFfHQ)" vector-effect="non-scaling-stroke" stroke-width="4" stroke="rgb(0,0,0)" stroke-linejoin="miter" stroke-linecap="square" stroke-miterlimit="3"/><mask id="_mask_tRoDFIIRx0phY7Qr3zFF7v3458fUvhpc"><path d=" M 21.26 118.378 C 21.26 55.799 72.066 4.992 134.646 4.992 C 197.225 4.992 248.031 55.799 248.031 118.378 C 248.031 180.957 197.225 231.764 134.646 231.764 C 72.066 231.764 21.26 180.957 21.26 118.378 Z " fill="white" stroke="none"/></mask><path d=" M 21.26 118.378 C 21.26 55.799 72.066 4.992 134.646 4.992 C 197.225 4.992 248.031 55.799 248.031 118.378 C 248.031 180.957 197.225 231.764 134.646 231.764 C 72.066 231.764 21.26 180.957 21.26 118.378 Z " fill="none" mask="url(#_mask_tRoDFIIRx0phY7Qr3zFF7v3458fUvhpc)" vector-effect="non-scaling-stroke" stroke-width="4" stroke="rgb(255,255,255)" stroke-linejoin="miter" stroke-linecap="square" stroke-miterlimit="3"/></g><path d="M 181.187 201.326 L 231.197 252.191 C 233.913 254.954 233.876 259.403 231.112 262.12 L 230.944 262.286 C 228.181 265.003 223.732 264.965 221.015 262.202 L 171.005 211.337 C 168.288 208.573 168.326 204.124 171.089 201.408 L 171.258 201.242 C 174.021 198.525 178.47 198.563 181.187 201.326 Z" style="stroke:none;fill:#000000;stroke-miterlimit:10;"/><path d="M 181.187 201.326 L 231.197 252.191 C 233.913 254.954 233.876 259.403 231.112 262.12 L 230.944 262.286 C 228.181 265.003 223.732 264.965 221.015 262.202 L 171.005 211.337 C 168.288 208.573 168.326 204.124 171.089 201.408 L 171.258 201.242 C 174.021 198.525 178.47 198.563 181.187 201.326 Z" style="fill:none;stroke:#000000;stroke-width:4;stroke-linecap:square;stroke-miterlimit:3;"/><path d="M 181.187 201.326 L 231.197 252.191 C 233.913 254.954 233.876 259.403 231.112 262.12 L 230.944 262.286 C 228.181 265.003 223.732 264.965 221.015 262.202 L 171.005 211.337 C 168.288 208.573 168.326 204.124 171.089 201.408 L 171.258 201.242 C 174.021 198.525 178.47 198.563 181.187 201.326 Z" style="fill:none;stroke:#000000;stroke-width:4;stroke-linecap:round;stroke-miterlimit:3;"/><path d="M 181.187 201.326 L 231.197 252.191 C 233.913 254.954 233.876 259.403 231.112 262.12 L 230.944 262.286 C 228.181 265.003 223.732 264.965 221.015 262.202 L 171.005 211.337 C 168.288 208.573 168.326 204.124 171.089 201.408 L 171.258 201.242 C 174.021 198.525 178.47 198.563 181.187 201.326 Z" style="stroke:none;fill:#000000;stroke-miterlimit:10;"/><path d="M 181.187 201.326 L 231.197 252.191 C 233.913 254.954 233.876 259.403 231.112 262.12 L 230.944 262.286 C 228.181 265.003 223.732 264.965 221.015 262.202 L 171.005 211.337 C 168.288 208.573 168.326 204.124 171.089 201.408 L 171.258 201.242 C 174.021 198.525 178.47 198.563 181.187 201.326 Z" style="fill:none;stroke:#000000;stroke-width:4;stroke-linecap:square;stroke-miterlimit:3;"/><path d="M 181.187 201.326 L 231.197 252.191 C 233.913 254.954 233.876 259.403 231.112 262.12 L 230.944 262.286 C 228.181 265.003 223.732 264.965 221.015 262.202 L 171.005 211.337 C 168.288 208.573 168.326 204.124 171.089 201.408 L 171.258 201.242 C 174.021 198.525 178.47 198.563 181.187 201.326 Z" style="fill:none;stroke:#000000;stroke-width:4;stroke-linecap:round;stroke-miterlimit:3;"/><path d=" M 77.955 162.065 C 78.22 130.776 103.838 105.589 135.126 105.855 C 166.415 106.12 191.602 131.738 191.337 163.026 C 191.071 194.315 165.453 219.502 134.165 219.236 C 102.876 218.971 77.689 193.353 77.955 162.065 Z " fill="rgb(255,255,255)"/><g style="isolation: isolate;"><mask id="_mask_vLOXqcvDrcwOu9jvCVXcOOsIKYxA5yWk"><path d=" M 77.955 162.065 C 78.22 130.776 103.838 105.589 135.126 105.855 C 166.415 106.12 191.602 131.738 191.337 163.026 C 191.071 194.315 165.453 219.502 134.165 219.236 C 102.876 218.971 77.689 193.353 77.955 162.065 Z " fill="white" stroke="none"/></mask><path d=" M 77.955 162.065 C 78.22 130.776 103.838 105.589 135.126 105.855 C 166.415 106.12 191.602 131.738 191.337 163.026 C 191.071 194.315 165.453 219.502 134.165 219.236 C 102.876 218.971 77.689 193.353 77.955 162.065 Z " fill="none" mask="url(#_mask_vLOXqcvDrcwOu9jvCVXcOOsIKYxA5yWk)" vector-effect="non-scaling-stroke" stroke-width="4" stroke="rgb(0,0,0)" stroke-linejoin="miter" stroke-linecap="square" stroke-miterlimit="3"/><mask id="_mask_xamzeVmPg5FjKPxYsJj6hjLh4ycDeWgc" x="-200%" y="-200%" width="400%" height="400%"><rect x="0" y="0" width="100%" height="100%" style="fill:white;"/><path d=" M 77.955 162.065 C 78.22 130.776 103.838 105.589 135.126 105.855 C 166.415 106.12 191.602 131.738 191.337 163.026 C 191.071 194.315 165.453 219.502 134.165 219.236 C 102.876 218.971 77.689 193.353 77.955 162.065 Z " fill="black" stroke="none"/></mask><path d=" M 77.955 162.065 C 78.22 130.776 103.838 105.589 135.126 105.855 C 166.415 106.12 191.602 131.738 191.337 163.026 C 191.071 194.315 165.453 219.502 134.165 219.236 C 102.876 218.971 77.689 193.353 77.955 162.065 Z " fill="none" mask="url(#_mask_xamzeVmPg5FjKPxYsJj6hjLh4ycDeWgc)" vector-effect="non-scaling-stroke" stroke-width="4" stroke="rgb(255,255,255)" stroke-linejoin="miter" stroke-linecap="square" stroke-miterlimit="3"/></g></g></g></svg>